<?xml version="1.0" encoding="UTF-8" standalone="no"?>
<svg
   width="2240"
   zoomAndPan="magnify"
   viewBox="0 0 1680 479.999983"
   height="640"
   preserveAspectRatio="xMidYMid meet"
   version="1.0"
   id="svg47"
   sodipodi:docname="Trackr_black_large.svg"
   inkscape:version="1.4 (e7c3feb1, 2024-10-09)"
   xmlns:inkscape="http://www.inkscape.org/namespaces/inkscape"
   xmlns:sodipodi="http://sodipodi.sourceforge.net/DTD/sodipodi-0.dtd"
   xmlns="http://www.w3.org/2000/svg"
   xmlns:svg="http://www.w3.org/2000/svg">
  <sodipodi:namedview
     id="namedview47"
     pagecolor="#ffffff"
     bordercolor="#000000"
     borderopacity="0.25"
     inkscape:showpageshadow="2"
     inkscape:pageopacity="0.0"
     inkscape:pagecheckerboard="0"
     inkscape:deskcolor="#d1d1d1"
     inkscape:zoom="0.38281249"
     inkscape:cx="1119.347"
     inkscape:cy="321.30613"
     inkscape:window-width="1512"
     inkscape:window-height="945"
     inkscape:window-x="0"
     inkscape:window-y="37"
     inkscape:window-maximized="0"
     inkscape:current-layer="svg47" />
  <defs
     id="defs11">
    <g
       id="g1" />
    <clipPath
       id="347e828935">
      <path
         d="M 985 51 L 1252 51 L 1252 354 L 985 354 Z M 985 51 "
         clip-rule="nonzero"
         id="path1" />
    </clipPath>
    <clipPath
       id="a0aaefb07e">
      <path
         d="M 950.648438 280.421875 L 1190.78125 -0.015625 L 1310.835938 102.785156 L 1070.699219 383.21875 Z M 950.648438 280.421875 "
         clip-rule="nonzero"
         id="path2" />
    </clipPath>
    <clipPath
       id="413f91b9ee">
      <path
         d="M 1250.796875 51.394531 L 1131.089844 69.695312 L 1165.9375 99.535156 L 985.496094 310.261719 L 1035.851562 353.378906 L 1216.292969 142.652344 L 1251.140625 172.496094 Z M 1250.796875 51.394531 "
         clip-rule="nonzero"
         id="path3" />
    </clipPath>
    <clipPath
       id="37dcbfdfbc">
      <path
         d="M 925 235 L 1062 235 L 1062 365 L 925 365 Z M 925 235 "
         clip-rule="nonzero"
         id="path4" />
    </clipPath>
    <clipPath
       id="33fb134e49">
      <path
         d="M 925.523438 276.8125 L 962.355469 235.332031 L 1061.660156 323.503906 L 1024.828125 364.984375 Z M 925.523438 276.8125 "
         clip-rule="nonzero"
         id="path5" />
    </clipPath>
    <clipPath
       id="8693b8b49b">
      <path
         d="M 845 227 L 1005 227 L 1005 395 L 845 395 Z M 845 227 "
         clip-rule="nonzero"
         id="path6" />
    </clipPath>
    <clipPath
       id="865262a299">
      <path
         d="M 954.375 227.699219 L 1004.183594 272.375 L 894.9375 394.179688 L 845.128906 349.503906 Z M 954.375 227.699219 "
         clip-rule="nonzero"
         id="path7" />
    </clipPath>
    <clipPath
       id="c49fb98c2d">
      <path
         d="M 756.621094 546.988281 L 957.535156 305.808594 L 993.59375 335.84375 L 792.679688 577.023438 Z M 756.621094 546.988281 "
         clip-rule="nonzero"
         id="path9" />
    </clipPath>
    <clipPath
       id="5b1f3094d5">
      <path
         d="M 756.621094 573.230469 L 957.535156 332.050781 L 993.59375 362.089844 L 792.679688 603.269531 Z M 756.621094 573.230469 "
         clip-rule="nonzero"
         id="path11" />
    </clipPath>
    <clipPath
       clipPathUnits="userSpaceOnUse"
       id="clipPath47">
      <path
         d="M 755.99999,332 H 994.00003 V 480 H 755.99999 Z m 0,0"
         clip-rule="nonzero"
         id="path48"
         style="stroke-width:0.999997" />
    </clipPath>
    <clipPath
       clipPathUnits="userSpaceOnUse"
       id="clipPath49">
      <path
         d="M 755.99999,305 H 994.00003 V 480 H 755.99999 Z m 0,0"
         clip-rule="nonzero"
         id="path50"
         style="stroke-width:0.999997" />
    </clipPath>
  </defs>
  <g
     fill="#d9d9d9"
     fill-opacity="1"
     id="g15">
    <g
       transform="translate(36.752189, 388.030842)"
       id="g14">
      <g
         id="g13">
        <path
           d="M 2.640625 -218.34375 L 2.640625 -272.921875 L 194.515625 -272.921875 L 194.515625 -218.34375 L 129.671875 -218.34375 L 129.671875 0 L 67.484375 0 L 67.484375 -218.34375 Z M 2.640625 -218.34375 "
           id="path13" />
      </g>
    </g>
  </g>
  <g
     fill="#d9d9d9"
     fill-opacity="1"
     id="g18">
    <g
       transform="translate(233.919197, 388.030842)"
       id="g17">
      <g
         id="g16">
        <path
           d="M 19.84375 -272.921875 L 117.4375 -272.921875 C 143.6875 -272.921875 165.078125 -265.914062 181.609375 -251.90625 C 198.148438 -237.90625 206.421875 -217.894531 206.421875 -191.875 C 206.421875 -171.800781 201.40625 -154.984375 191.375 -141.421875 C 181.34375 -127.859375 167.722656 -118.320312 150.515625 -112.8125 L 244.46875 0 L 165.40625 0 L 82.046875 -107.84375 L 82.046875 0 L 19.84375 0 Z M 82.046875 -151.84375 L 89.3125 -151.84375 C 95.050781 -151.84375 99.90625 -151.953125 103.875 -152.171875 C 107.84375 -152.390625 112.363281 -153.160156 117.4375 -154.484375 C 122.507812 -155.804688 126.585938 -157.679688 129.671875 -160.109375 C 132.765625 -162.535156 135.410156 -166.0625 137.609375 -170.6875 C 139.816406 -175.320312 140.921875 -180.945312 140.921875 -187.5625 C 140.921875 -194.1875 139.816406 -199.8125 137.609375 -204.4375 C 135.410156 -209.070312 132.765625 -212.601562 129.671875 -215.03125 C 126.585938 -217.457031 122.507812 -219.332031 117.4375 -220.65625 C 112.363281 -221.976562 107.84375 -222.75 103.875 -222.96875 C 99.90625 -223.1875 95.050781 -223.296875 89.3125 -223.296875 L 82.046875 -223.296875 Z M 82.046875 -151.84375 "
           id="path15" />
      </g>
    </g>
  </g>
  <g
     fill="#d9d9d9"
     fill-opacity="1"
     id="g21">
    <g
       transform="translate(470.784295, 388.030842)"
       id="g20">
      <g
         id="g19">
        <path
           d="M 158.453125 -272.921875 L 268.625 0 L 201.796875 0 L 181.609375 -54.578125 L 77.734375 -54.578125 L 57.5625 0 L -9.265625 0 L 100.890625 -272.921875 Z M 160.4375 -109.171875 L 130.015625 -188.5625 L 129.34375 -188.5625 L 98.90625 -109.171875 Z M 160.4375 -109.171875 "
           id="path18" />
      </g>
    </g>
  </g>
  <path
     id="path21"
     style="fill:#7ed957;fill-opacity:1"
     d="m 885.63133,110.15625 c -18.96875,0 -37.4956,3.75 -55.57763,11.25 -18.08594,7.49219 -33.90723,17.52344 -47.46973,30.09375 -13.5625,12.57422 -24.42871,27.68358 -32.59277,45.32812 -8.15625,17.63671 -12.23438,36.0459 -12.23438,55.2334 0,25.36719 6.94483,48.96533 20.84326,70.79736 13.89454,21.83594 32.19581,38.98389 54.90674,51.45264 22.50485,12.34361 56.08259,19.19335 81.18615,19.3095 l 54.54774,-77.85491 -0.42188,-0.84522 -6.29736,4.29785 c -4.1875,2.64844 -10.75,5.40577 -19.6875,8.28077 -8.92969,2.86719 -18.13281,4.29638 -27.60938,4.29638 -28.89843,0 -51.12011,-8.21044 -66.67089,-24.64013 -15.54297,-16.4375 -23.31299,-35.02002 -23.31299,-55.75049 0,-9.47656 1.8169,-18.7959 5.45361,-27.95215 3.64454,-9.15625 8.94141,-17.70312 15.89063,-25.64062 6.94531,-7.9375 16.37402,-14.33252 28.28027,-19.18799 11.90625,-4.85156 25.35937,-7.28174 40.35937,-7.28174 9.47657,0 18.84863,1.54688 28.11035,4.64063 9.26953,3.08593 15.44434,5.56347 18.53028,7.43847 3.08203,1.875 5.39893,3.47559 6.95361,4.7959 L 975.27244,135.2959 966.02196,129 c -6.17969,-4.1875 -16.71094,-8.375 -31.59375,-12.5625 -14.88672,-4.1875 -31.15234,-6.28125 -48.79688,-6.28125 z"
     sodipodi:nodetypes="scccscccccccscscccsccccccs" />
  <g
     fill="#d9d9d9"
     fill-opacity="1"
     id="g27">
    <g
       transform="translate(979.262259, 388.030842)"
       id="g26">
      <g
         id="g25">
        <path
           d="M 268.28125 0 L 182.609375 0 L 82.046875 -115.78125 L 82.046875 0 L 19.84375 0 L 19.84375 -272.921875 L 82.046875 -272.921875 L 82.046875 -161.4375 L 175.65625 -272.921875 L 251.09375 -272.921875 L 141.25 -143.578125 Z M 268.28125 0 "
           id="path24" />
      </g>
    </g>
  </g>
  <g
     fill="#d9d9d9"
     fill-opacity="1"
     id="g30">
    <g
       transform="translate(1239.615362, 388.030842)"
       id="g29">
      <g
         id="g28">
        <path
           d="M 19.84375 -272.921875 L 117.4375 -272.921875 C 143.6875 -272.921875 165.078125 -265.914062 181.609375 -251.90625 C 198.148438 -237.90625 206.421875 -217.894531 206.421875 -191.875 C 206.421875 -171.800781 201.40625 -154.984375 191.375 -141.421875 C 181.34375 -127.859375 167.722656 -118.320312 150.515625 -112.8125 L 244.46875 0 L 165.40625 0 L 82.046875 -107.84375 L 82.046875 0 L 19.84375 0 Z M 82.046875 -151.84375 L 89.3125 -151.84375 C 95.050781 -151.84375 99.90625 -151.953125 103.875 -152.171875 C 107.84375 -152.390625 112.363281 -153.160156 117.4375 -154.484375 C 122.507812 -155.804688 126.585938 -157.679688 129.671875 -160.109375 C 132.765625 -162.535156 135.410156 -166.0625 137.609375 -170.6875 C 139.816406 -175.320312 140.921875 -180.945312 140.921875 -187.5625 C 140.921875 -194.1875 139.816406 -199.8125 137.609375 -204.4375 C 135.410156 -209.070312 132.765625 -212.601562 129.671875 -215.03125 C 126.585938 -217.457031 122.507812 -219.332031 117.4375 -220.65625 C 112.363281 -221.976562 107.84375 -222.75 103.875 -222.96875 C 99.90625 -223.1875 95.050781 -223.296875 89.3125 -223.296875 L 82.046875 -223.296875 Z M 82.046875 -151.84375 "
           id="path27" />
      </g>
    </g>
  </g>
  <g
     clip-path="url(#347e828935)"
     id="g33">
    <g
       clip-path="url(#a0aaefb07e)"
       id="g32">
      <g
         clip-path="url(#413f91b9ee)"
         id="g31">
        <path
           fill="#7ed957"
           d="M 950.648438 280.421875 L 1190.78125 -0.015625 L 1310.835938 102.785156 L 1070.699219 383.21875 Z M 950.648438 280.421875 "
           fill-opacity="1"
           fill-rule="nonzero"
           id="path30" />
      </g>
    </g>
  </g>
  <g
     clip-path="url(#37dcbfdfbc)"
     id="g35">
    <g
       clip-path="url(#33fb134e49)"
       id="g34">
      <path
         fill="#7ed957"
         d="M 925.523438 276.8125 L 962.355469 235.332031 L 1061.683594 323.523438 L 1024.851562 365.003906 Z M 925.523438 276.8125 "
         fill-opacity="1"
         fill-rule="nonzero"
         id="path33" />
    </g>
  </g>
  <g
     clip-path="url(#8693b8b49b)"
     id="g37">
    <g
       clip-path="url(#865262a299)"
       id="g36">
      <path
         fill="#7ed957"
         d="M 954.375 227.699219 L 1004.183594 272.375 L 894.941406 394.175781 L 845.128906 349.5 Z M 954.375 227.699219 "
         fill-opacity="1"
         fill-rule="nonzero"
         id="path35" />
    </g>
  </g>
  <g
     fill="#d9d9d9"
     fill-opacity="1"
     id="g44">
    <g
       transform="translate(1480.079042, 220.824889)"
       id="g43">
      <g
         id="g42">
        <path
           d="M 57.25 -73.5 L 86.015625 -73.5 L 86.015625 -53.515625 L 57.25 -53.515625 L 57.25 -24.328125 L 36.40625 -24.328125 L 36.40625 -53.515625 L 7.5625 -53.515625 L 7.5625 -73.5 L 36.40625 -73.5 L 36.40625 -102.703125 L 57.25 -102.703125 Z M 57.25 -73.5 "
           id="path41" />
      </g>
    </g>
  </g>
  <g
     fill="#d9d9d9"
     fill-opacity="1"
     id="g47">
    <g
       transform="translate(1573.823611, 220.824889)"
       id="g46">
      <g
         id="g45">
        <path
           d="M 57.25 -73.5 L 86.015625 -73.5 L 86.015625 -53.515625 L 57.25 -53.515625 L 57.25 -24.328125 L 36.40625 -24.328125 L 36.40625 -53.515625 L 7.5625 -53.515625 L 7.5625 -73.5 L 36.40625 -73.5 L 36.40625 -102.703125 L 57.25 -102.703125 Z M 57.25 -73.5 "
           id="path44" />
      </g>
    </g>
  </g>
</svg>
